<?xml version="1.0" encoding="UTF-8"?>
<svg xmlns="http://www.w3.org/2000/svg" xmlns:xlink="http://www.w3.org/1999/xlink" width="512px" height="512px" viewBox="0 0 512 512">
  <!-- Generator: Sketch 46.2 (44496) - http://www.bohemiancoding.com/sketch -->
  <title>icon</title>
  <desc>Created with Sketch.</desc>
  <defs></defs>
  <g id="Page-1" stroke="none" stroke-width="1" fill="none" fill-rule="evenodd">
    <g id="icon">
      <g id="Group">
        <circle id="Oval-Copy-2" fill="#C1446B" cx="256" cy="256" r="256"></circle>
        <path d="M376.94634,263.290568 C377.144548,262.991065 377.281092,262.66954 377.452873,262.356824 C377.664295,261.969232 377.902145,261.594853 378.069521,261.185239 C378.236897,260.784433 378.333799,260.361606 378.452724,259.947587 C378.558436,259.595231 378.690575,259.260492 378.765453,258.899327 C379.078182,257.313723 379.078182,255.684075 378.765453,254.102875 C378.694979,253.74171 378.558436,253.402567 378.452724,253.054615 C378.329395,252.640596 378.236897,252.222173 378.069521,251.816963 C377.897741,251.402945 377.664295,251.03297 377.452873,250.645378 C377.281092,250.332662 377.144548,250.011137 376.94634,249.711634 C376.497067,249.037752 375.981725,248.407915 375.413528,247.835336 L265.165565,137.587428 C260.386538,132.804191 252.62117,132.804191 247.842143,137.587428 C243.058712,142.370666 243.058712,150.126911 247.842143,154.910149 L337.181314,244.25011 L146.249284,244.25011 C139.483768,244.25011 134,249.733656 134,256.498899 C134,263.264141 139.483768,268.747688 146.249284,268.747688 L337.181314,268.747688 L247.842143,358.087649 C243.058712,362.870887 243.058712,370.627131 247.842143,375.410369 C250.233859,377.801988 253.369958,379 256.501652,379 C259.633346,379 262.773849,377.801988 265.16116,375.410369 L375.404718,265.17127 C375.981725,264.598691 376.497067,263.968854 376.94634,263.290568 Z" id="Shape" fill="#FFFFFF" fill-rule="nonzero"></path>
      </g>
    </g>
  </g>
</svg>
